<svg width="25" height="25" viewBox="0 0 25 25" fill="none" xmlns="http://www.w3.org/2000/svg">
<path fill-rule="evenodd" clip-rule="evenodd" d="M22.6562 8.20312H7.03125V5.85938H22.6562V8.20312Z" fill="white"/>
<path fill-rule="evenodd" clip-rule="evenodd" d="M22.6562 13.6719H7.03125V11.3281H22.6562V13.6719Z" fill="white"/>
<path fill-rule="evenodd" clip-rule="evenodd" d="M22.6562 19.1406H7.03125V16.7969H22.6562V19.1406Z" fill="white"/>
<path fill-rule="evenodd" clip-rule="evenodd" d="M2.34375 6.25C2.34375 5.81853 2.69353 5.46875 3.125 5.46875H4.6875C5.11897 5.46875 5.46875 5.81853 5.46875 6.25V7.8125C5.46875 8.24397 5.11897 8.59375 4.6875 8.59375H3.125C2.69353 8.59375 2.34375 8.24397 2.34375 7.8125V6.25Z" fill="white"/>
<path fill-rule="evenodd" clip-rule="evenodd" d="M2.34375 11.7188C2.34375 11.2873 2.69353 10.9375 3.125 10.9375H4.6875C5.11897 10.9375 5.46875 11.2873 5.46875 11.7188V13.2812C5.46875 13.7127 5.11897 14.0625 4.6875 14.0625H3.125C2.69353 14.0625 2.34375 13.7127 2.34375 13.2812V11.7188Z" fill="white"/>
<path fill-rule="evenodd" clip-rule="evenodd" d="M2.34375 17.1875C2.34375 16.756 2.69353 16.4062 3.125 16.4062H4.6875C5.11897 16.4062 5.46875 16.756 5.46875 17.1875V18.75C5.46875 19.1815 5.11897 19.5312 4.6875 19.5312H3.125C2.69353 19.5312 2.34375 19.1815 2.34375 18.75V17.1875Z" fill="white"/>
</svg>
